# xmcd CD database file
#
# Track frame offsets:
#	150
#	10915
#	24987
#	41880
#	63042
#	81067
#	93085
#	117180
#	141250
#	162120
#	176900
#	195920
#	210547
#
# Disc length: 3006 seconds
#
# Revision: 0
# Processed by: cddbd v1.5.1PL0 Copyright (c) Steve Scherf et al.
# Submitted via: CDex 1.51
#
DISCID=9e0bbc0d
DTITLE=DEPAPEPE - Sky! Sky! Sky!
DYEAR=1900
DGENRE=Instrumental
TTITLE0=Hi-D
TTITLE1=La Tanta
TTITLE2=真夜中の強盗
TTITLE3=水面に浮かぶ金魚鉢
TTITLE4=風
TTITLE5=いつかみた道
TTITLE6=木漏れ日の中で
TTITLE7=THIS WAY
TTITLE8=Sky! Sky! Sky!
TTITLE9=Sabamba
TTITLE10=さざなみ
TTITLE11=TIME
TTITLE12=微風
EXTD=
EXTT0=
EXTT1=
EXTT2=
EXTT3=
EXTT4=
EXTT5=
EXTT6=
EXTT7=
EXTT8=
EXTT9=
EXTT10=
EXTT11=
EXTT12=
PLAYORDER=
